<?xml version="1.0" standalone="no"?>
<!DOCTYPE svg PUBLIC "-//W3C//DTD SVG 20010904//EN"
 "http://www.w3.org/TR/2001/REC-SVG-20010904/DTD/svg10.dtd">
<svg version="1.0" xmlns="http://www.w3.org/2000/svg"
 width="300.000000pt" height="168.000000pt" viewBox="0 0 300.000000 168.000000"
 preserveAspectRatio="xMidYMid meet">

<g transform="translate(0.000000,168.000000) scale(0.100000,-0.100000)"
fill="#000000" stroke="none">
<path d="M137 1669 c-10 -6 -25 -8 -33 -5 -8 3 -14 0 -14 -6 0 -9 -3 -9 -12 0
-23 23 -78 8 -78 -21 0 -5 7 -7 15 -3 26 10 64 -12 71 -40 7 -27 -7 -44 -36
-43 -8 0 -4 5 9 10 33 13 23 19 -19 10 -29 -5 -36 -12 -38 -35 -3 -26 -1 -28
20 -21 13 4 42 10 64 12 48 6 78 -18 88 -69 12 -62 9 -68 -32 -68 -33 0 -38
-3 -37 -21 1 -11 8 -25 16 -30 11 -7 11 -9 -3 -9 -10 0 -18 3 -18 8 0 4 -13
16 -27 26 -24 18 -26 18 -20 2 4 -10 10 -29 13 -43 6 -23 5 -24 -14 -12 -15 9
-18 17 -11 25 7 9 3 17 -13 28 -21 15 -23 15 -26 0 -2 -9 6 -26 17 -38 12 -12
21 -28 21 -36 0 -7 3 -10 7 -7 6 6 32 -21 33 -35 0 -3 -13 -4 -30 -2 -17 3
-30 2 -30 -3 0 -17 16 -29 38 -27 27 2 28 -4 5 -22 -24 -17 -11 -28 31 -26 27
1 40 -5 56 -25 11 -14 20 -21 20 -15 0 6 -15 25 -32 41 -31 29 -32 31 -10 31
12 0 25 7 28 15 5 12 10 13 20 4 11 -9 14 -8 14 1 0 9 3 10 13 1 11 -8 16 -5
25 15 7 14 12 35 12 48 0 13 8 27 17 30 10 4 14 4 11 0 -11 -10 11 -46 24 -38
6 4 8 -1 3 -15 -3 -12 -3 -20 2 -19 4 2 19 -5 33 -15 13 -9 19 -17 13 -17 -6
0 -13 -8 -16 -17 -3 -15 -6 -13 -17 10 -7 15 -20 27 -29 27 -17 -1 -108 -106
-104 -120 1 -4 -15 1 -36 11 -37 18 -134 23 -124 7 2 -5 -1 -8 -6 -8 -7 0 -10
-27 -10 -72 1 -40 4 -63 6 -50 4 19 11 22 48 22 43 0 43 0 41 -32 -2 -18 1
-36 7 -39 6 -4 5 -14 -2 -25 -10 -18 -10 -18 -11 1 -1 18 -2 18 -10 -3 -5 -12
-17 -25 -25 -28 -20 -8 -46 24 -41 49 2 9 0 15 -5 11 -17 -10 -9 -59 14 -79
l22 -20 -23 -3 c-12 -2 -22 -10 -22 -18 0 -8 4 -13 9 -10 5 3 11 -1 15 -9 3
-8 0 -14 -6 -12 -17 3 -23 -34 -7 -44 17 -10 49 7 49 27 0 9 -5 12 -12 8 -7
-4 -10 -4 -6 1 4 4 3 16 -3 26 -7 15 -6 17 6 13 8 -4 15 -13 15 -21 0 -8 4
-11 10 -8 6 3 7 -1 4 -9 -4 -11 0 -16 11 -16 11 0 15 7 13 22 -2 15 3 24 15
26 16 3 22 -14 20 -65 -1 -7 3 -10 8 -7 5 3 9 -4 9 -15 0 -12 -6 -21 -14 -21
-26 0 -25 -15 4 -50 27 -33 28 -34 53 -17 18 12 28 13 33 6 4 -8 10 -6 16 5 9
16 11 16 24 -1 11 -15 14 -15 15 -3 1 8 3 26 4 40 1 14 -4 34 -11 45 -20 28
-19 51 2 31 21 -21 31 -20 39 4 3 11 10 20 14 20 8 0 23 32 36 79 5 16 4 21
-4 17 -7 -5 -9 -1 -5 8 3 9 1 16 -4 16 -6 0 -13 -9 -17 -19 -3 -10 -19 -24
-35 -31 -32 -13 -38 -25 -17 -34 6 -3 3 -4 -8 -3 -14 1 -20 -4 -18 -16 0 -10
-1 -16 -4 -14 -2 3 -19 1 -36 -4 -23 -6 -37 -5 -54 6 -20 14 -35 44 -15 32 8
-6 12 24 12 98 0 32 7 56 18 68 10 11 17 35 17 59 0 31 5 44 23 56 23 15 24
15 17 -19 -5 -26 -2 -39 9 -49 9 -7 19 -10 23 -6 3 3 1 6 -5 6 -7 0 -12 17
-12 45 0 52 19 61 46 20 21 -32 48 -34 40 -2 -4 17 0 25 17 33 12 5 20 16 18
24 -3 8 -5 29 -5 45 -1 17 -7 35 -15 41 -9 7 -12 18 -7 30 7 18 8 18 17 1 9
-15 12 -15 25 -3 8 8 14 23 14 34 0 11 9 30 20 43 20 24 20 24 35 4 15 -18 14
-21 -4 -34 -12 -7 -21 -17 -21 -22 0 -5 11 -2 25 7 20 13 24 23 21 49 -4 29
-2 32 17 28 17 -4 19 -3 7 6 -12 8 -12 11 4 17 11 4 21 2 27 -7 6 -9 12 -10
17 -4 11 15 32 17 32 3 0 -10 2 -10 8 0 5 7 16 10 25 6 9 -3 15 -9 12 -13 -2
-4 18 -6 44 -3 45 4 49 2 55 -23 4 -14 13 -28 22 -32 23 -8 96 27 90 44 -3 8
-2 12 3 9 5 -3 12 1 15 10 9 23 7 31 -3 15 -7 -11 -11 -5 -16 22 -8 43 -61
121 -76 112 -5 -4 -6 -12 -2 -18 4 -7 0 -6 -10 2 -10 8 -17 9 -17 3 0 -6 5
-14 10 -17 6 -3 10 -10 10 -16 0 -5 -9 -4 -20 3 -11 7 -18 18 -16 24 5 12 -61
30 -72 20 -3 -3 2 -6 11 -6 9 0 21 -10 28 -21 9 -17 8 -20 -3 -16 -7 2 -12 10
-10 16 1 6 -4 11 -12 11 -24 0 -28 18 -7 29 14 8 27 7 48 -4 17 -9 29 -11 31
-5 2 6 9 7 15 3 7 -3 9 -2 4 2 -19 21 -106 23 -289 7 -12 -1 -18 -10 -18 -27
0 -28 29 -48 51 -34 7 5 10 9 4 9 -5 0 -2 5 7 11 13 7 23 7 35 -1 15 -9 14
-10 -6 -4 -15 4 -21 2 -17 -4 3 -6 -7 -16 -24 -24 -23 -10 -28 -17 -24 -33 7
-20 6 -20 -15 -1 -22 20 -29 42 -10 30 7 -4 10 -1 7 6 -7 23 -25 22 -31 -2 -6
-20 -8 -21 -24 -6 -10 8 -25 14 -35 13 -9 -2 -19 6 -23 19 -6 19 -8 17 -16
-14 -6 -19 -23 -50 -38 -69 l-28 -34 -21 21 c-11 11 -22 19 -24 16 -3 -2 -12
12 -21 31 -10 21 -12 37 -7 40 6 3 10 -3 10 -13 0 -24 30 -38 41 -20 5 8 3 14
-6 16 -8 2 -15 12 -15 23 0 15 -5 18 -24 13 -16 -4 -25 -1 -29 10 -4 9 -3 15
1 15 4 -1 21 -1 37 1 26 1 27 3 10 9 -16 7 -11 9 22 12 38 4 40 3 31 -14 -5
-10 -7 -21 -4 -24 3 -3 -2 -12 -12 -19 -9 -7 -12 -14 -5 -14 6 0 21 13 32 29
18 25 19 30 6 47 -8 10 -15 15 -15 10 0 -5 -9 -1 -21 10 -16 15 -24 16 -39 6
-25 -15 -33 -15 -25 1 4 6 0 4 -8 -6 -12 -15 -16 -15 -20 -3 -6 16 12 26 49
26 25 0 36 29 12 31 -7 0 -4 4 7 9 16 7 14 9 -15 9 -23 1 -30 -2 -22 -8 11 -7
10 -10 -3 -15 -23 -9 -25 -8 -19 9 7 18 5 18 -19 4z m-13 -44 c-17 -12 -17
-14 -1 -39 14 -21 15 -26 3 -26 -8 0 -18 17 -24 41 -9 34 -8 40 4 35 8 -3 14
-1 14 5 0 6 5 7 11 4 6 -5 4 -12 -7 -20z m103 -21 c-3 -3 -12 -4 -19 -1 -8 3
-5 6 6 6 11 1 17 -2 13 -5z m287 -43 c4 -5 -3 -7 -14 -4 -23 6 -26 13 -6 13 8
0 17 -4 20 -9z m89 2 c-7 -2 -19 -2 -25 0 -7 3 -2 5 12 5 14 0 19 -2 13 -5z
m-578 -13 c3 -5 1 -10 -4 -10 -6 0 -11 5 -11 10 0 6 2 10 4 10 3 0 8 -4 11
-10z m610 -49 c8 -17 25 -37 37 -45 12 -9 18 -16 13 -17 -6 0 -1 -4 10 -9 17
-7 17 -9 3 -9 -31 -2 -33 -1 -33 7 0 12 -28 37 -42 38 -28 2 -33 4 -33 13 0 6
9 8 20 6 11 -2 20 0 20 5 0 13 -36 31 -45 22 -5 -4 -5 -1 -1 6 12 21 35 13 51
-17z m89 -27 c13 -5 14 -9 5 -20 -6 -8 -17 -14 -23 -14 -6 0 -4 5 4 10 10 6
11 10 3 10 -7 0 -13 5 -13 10 0 12 3 12 24 4z m71 -14 c3 -5 1 -10 -4 -10 -6
0 -11 5 -11 10 0 6 2 10 4 10 3 0 8 -4 11 -10z m-21 -17 c12 -13 48 -14 40 -1
-4 7 -3 8 4 4 23 -14 12 -27 -18 -22 -21 3 -33 -1 -39 -12 -5 -9 -12 -14 -16
-11 -3 4 1 14 9 22 12 12 13 17 3 20 -7 3 -7 6 -1 6 6 1 14 -2 18 -6z m-363
-36 c-10 -9 -11 -8 -5 6 3 10 9 15 12 12 3 -3 0 -11 -7 -18z m-146 -48 c7 -29
8 -29 25 -14 19 17 63 17 58 0 -1 -5 -9 -9 -16 -7 -7 2 -16 -6 -19 -17 -3 -12
-10 -21 -15 -21 -18 0 -58 53 -58 77 0 32 17 20 25 -18z m-104 -21 c11 -21 11
-22 -4 -9 -10 7 -17 17 -17 22 0 15 9 10 21 -13z m48 -37 c8 -5 11 -16 8 -26
-4 -9 -11 -14 -16 -10 -5 3 -12 1 -16 -5 -3 -5 -15 -10 -26 -10 -17 0 -18 3
-8 23 19 35 34 43 58 28z m97 -128 c20 -26 17 -29 -20 -25 -18 2 -44 -1 -56
-8 -30 -16 -34 -8 -9 23 24 31 65 36 85 10z m-131 -112 c3 -5 1 -12 -5 -16 -5
-3 -10 1 -10 9 0 18 6 21 15 7z m-25 -27 c0 -8 -4 -12 -10 -9 -5 3 -10 10 -10
16 0 5 5 9 10 9 6 0 10 -7 10 -16z m-29 -45 c-5 -13 -10 -19 -10 -12 -1 15 10
45 15 40 3 -2 0 -15 -5 -28z m196 -175 c-3 -3 -12 -4 -19 -1 -8 3 -5 6 6 6 11
1 17 -2 13 -5z"/>
<path d="M420 1670 c0 -5 5 -10 10 -10 6 0 10 5 10 10 0 6 -4 10 -10 10 -5 0
-10 -4 -10 -10z"/>
<path d="M450 1670 c0 -5 7 -10 15 -10 8 0 15 5 15 10 0 6 -7 10 -15 10 -8 0
-15 -4 -15 -10z"/>
<path d="M806 1667 c3 -8 11 -14 19 -14 20 0 19 4 -5 17 -15 8 -18 8 -14 -3z"/>
<path d="M954 1665 c-3 -8 -3 -19 1 -25 11 -18 25 -11 25 15 0 27 -17 34 -26
10z m13 -17 c-3 -8 -6 -5 -6 6 -1 11 2 17 5 13 3 -3 4 -12 1 -19z"/>
<path d="M1345 1672 c17 -4 29 -11 28 -15 -6 -17 -2 -28 8 -21 8 5 8 9 -1 14
-6 4 -11 11 -11 16 1 5 -11 10 -26 11 -27 2 -27 1 2 -5z"/>
<path d="M1730 1629 c0 -49 -1 -51 -25 -47 -13 3 -22 1 -19 -3 3 -5 14 -9 25
-9 10 0 19 -4 19 -9 0 -18 -19 -22 -40 -9 -17 11 -22 11 -29 0 -7 -11 -9 -11
-14 2 -3 8 -1 18 5 22 7 5 8 2 3 -7 -6 -11 -5 -12 5 -2 8 7 10 16 7 20 -4 4
-15 -1 -24 -10 -23 -23 -7 -71 26 -75 25 -4 24 0 6 -88 -5 -24 -3 -22 11 8 9
21 21 35 27 31 5 -3 7 -2 4 4 -3 5 3 22 14 39 l21 29 -8 -45 c-9 -57 -7 -111
6 -124 7 -7 8 6 4 38 -6 38 -4 47 5 41 10 -5 11 -2 6 15 -6 19 -5 21 13 11 11
-6 23 -7 27 -3 5 4 5 1 1 -6 -4 -7 -12 -10 -17 -7 -5 4 -5 -5 1 -20 7 -17 7
-24 0 -20 -6 3 -10 -1 -10 -10 0 -9 5 -13 10 -10 6 4 10 -5 10 -20 0 -15 -4
-24 -10 -20 -6 4 -8 11 -5 16 4 5 2 9 -3 9 -18 0 -22 -33 -7 -50 13 -14 14
-19 3 -24 -7 -3 -3 -3 10 0 28 7 29 -7 1 -24 -12 -8 -18 -9 -15 -3 4 5 2 12
-3 16 -6 3 -8 13 -5 23 4 12 0 11 -15 -6 -19 -22 -21 -22 -46 -6 -27 18 -33
29 -11 21 8 -3 17 -1 19 6 3 9 8 8 20 -2 15 -12 17 -11 17 3 0 11 -9 16 -27
17 -16 0 -22 3 -15 6 6 2 10 9 6 14 -3 5 -2 9 3 9 4 0 8 15 8 33 0 20 -5 34
-12 34 -7 0 -10 -4 -7 -9 3 -5 0 -16 -8 -25 -9 -12 -9 -15 0 -9 17 10 15 0 -5
-32 -31 -48 -44 -56 -111 -64 -36 -4 -75 -14 -88 -23 -26 -17 -67 -89 -57 -99
4 -3 -1 -6 -10 -6 -10 0 -17 8 -17 20 0 19 -9 24 -36 21 -7 -1 -14 6 -18 14
-4 11 -2 14 7 8 20 -12 38 -12 34 0 -2 7 -9 12 -15 12 -5 0 -14 4 -19 9 -5 5
-2 6 6 1 9 -5 12 -3 9 6 -3 8 -13 14 -22 14 -26 0 -46 57 -47 134 l-1 66 -10
-45 c-8 -34 -6 -57 6 -102 21 -75 21 -76 -9 -70 -48 9 -78 109 -63 204 4 20 4
38 2 41 -3 2 -34 -1 -70 -8 -75 -14 -119 -46 -104 -76 13 -23 13 -36 0 -23 -7
7 -29 8 -55 4 -31 -5 -49 -3 -59 7 -9 7 -12 8 -6 2 12 -16 -35 -53 -56 -45 -9
3 -12 2 -9 -4 4 -6 -2 -14 -12 -18 -19 -8 -29 -32 -13 -32 17 0 11 -27 -7 -34
-11 -5 -22 -1 -30 10 -12 16 -13 16 -19 0 -4 -9 -13 -15 -20 -12 -7 3 -28 -12
-47 -34 -36 -43 -54 -53 -37 -21 15 28 13 51 -4 45 -8 -3 -24 -1 -35 6 -19 10
-21 8 -21 -23 0 -27 -5 -36 -23 -42 l-22 -7 25 -8 c14 -4 43 -9 65 -9 l40 -2
-28 -15 c-17 -9 -33 -12 -45 -6 -16 8 -29 8 -107 1 -41 -3 -75 9 -75 28 0 10
-6 13 -16 9 -9 -3 -24 -6 -35 -6 -10 0 -19 -5 -19 -12 0 -6 -10 -23 -22 -37
-13 -14 -16 -20 -8 -13 24 21 31 13 15 -18 -17 -33 -20 -86 -5 -95 5 -3 16 7
24 23 18 34 66 78 97 87 12 4 37 0 60 -10 37 -17 41 -17 79 0 32 14 45 16 64
7 19 -9 25 -8 30 4 10 27 33 14 60 -36 15 -27 33 -50 39 -50 8 0 7 3 -2 9 -10
6 -12 22 -8 56 3 28 1 42 -4 34 -6 -11 -9 -10 -14 3 -17 43 13 74 34 36 6 -13
10 -16 7 -6 -3 10 8 25 33 42 37 26 61 33 61 18 0 -5 12 -14 27 -21 23 -10 30
-9 52 7 14 10 27 28 29 39 3 18 8 19 54 12 28 -5 51 -10 53 -11 1 -2 12 -20
24 -40 12 -21 24 -38 26 -38 8 0 -9 41 -21 51 -16 13 -18 45 -4 54 6 4 19 1
28 -6 9 -6 0 3 -21 22 -32 29 -37 39 -35 71 2 20 7 34 12 30 5 -3 7 2 3 11 -3
8 3 25 14 38 l19 22 0 -21 c0 -12 5 -22 10 -22 6 0 10 -15 10 -32 1 -18 8 -51
16 -73 18 -46 24 -163 9 -170 -5 -2 8 -3 30 -2 26 1 39 6 37 15 -1 7 5 15 13
18 8 3 13 9 10 14 -11 17 52 -4 72 -25 23 -24 20 -43 -4 -24 -10 9 -13 5 -13
-23 0 -27 -6 -38 -25 -48 -31 -17 -31 -22 0 -88 31 -67 31 -76 0 -70 -13 3
-22 1 -19 -3 3 -5 16 -9 29 -9 13 0 31 -7 39 -16 17 -16 21 -34 9 -34 -5 0
-23 -18 -41 -40 -21 -25 -27 -37 -16 -33 11 4 15 2 11 -4 -6 -10 30 -51 40
-45 3 2 14 -9 24 -25 25 -37 24 -97 -1 -133 l-20 -28 67 -21 c36 -12 78 -21
92 -21 25 0 90 15 121 27 8 3 18 6 22 5 4 -1 12 7 18 18 9 16 7 26 -9 47 -12
14 -21 33 -21 42 0 10 -4 21 -10 27 -6 6 -5 15 1 24 9 13 10 12 5 -2 -11 -35
11 -25 38 18 15 24 33 41 38 37 7 -4 8 -1 3 6 -4 7 1 20 13 31 18 17 22 17 32
5 7 -8 27 -15 45 -15 19 0 41 -3 50 -6 19 -8 50 -63 47 -84 -2 -13 -1 -13 7
-1 8 12 15 13 34 4 22 -10 26 -19 29 -72 1 -34 0 -61 -4 -61 -5 0 -8 -13 -8
-30 0 -22 5 -30 18 -30 10 0 28 -9 40 -20 l22 -21 0 27 c0 26 0 27 20 9 25
-23 25 -26 -1 -56 -13 -15 -18 -31 -14 -46 8 -34 -4 -28 -16 7 -12 33 -33 40
-43 14 -4 -10 -14 -14 -25 -11 -28 7 -35 -20 -11 -40 11 -10 20 -25 20 -33 0
-20 19 -40 38 -40 7 0 20 16 28 35 8 19 16 35 19 35 3 0 12 -18 21 -40 9 -22
20 -40 25 -40 5 0 22 -14 38 -32 34 -38 61 -33 61 12 0 23 6 33 25 42 13 6 22
15 19 20 -3 4 -10 6 -15 3 -5 -3 -6 1 -2 10 3 10 8 13 12 6 4 -6 11 -3 19 9 6
10 8 21 3 24 -13 8 -1 53 19 71 13 12 28 15 47 11 45 -10 93 -44 93 -65 0 -24
38 -35 57 -15 18 17 30 18 35 2 3 -7 4 7 2 31 -2 43 -22 69 -44 56 -15 -9 -52
15 -46 30 3 8 1 17 -3 20 -5 2 -17 37 -27 77 -21 83 -25 271 -7 330 10 32 9
37 -8 41 -12 3 -19 14 -18 29 l0 23 9 -22 c5 -13 12 -23 16 -23 3 0 4 7 0 15
-3 8 -1 15 3 15 11 0 2 38 -9 45 -5 3 -6 -4 -3 -15 3 -12 2 -20 -3 -19 -21 4
-35 -2 -28 -12 4 -7 -3 -6 -17 2 -15 7 -19 14 -11 17 6 2 12 8 12 13 0 6 -8 6
-19 -1 -29 -15 -38 -12 -15 5 17 13 15 14 -35 15 l-53 0 6 -30 c4 -22 2 -30
-9 -30 -8 0 -15 9 -15 19 0 12 -7 18 -17 17 -15 -1 -17 6 -15 40 2 27 -2 46
-12 56 -8 9 -12 18 -9 22 3 3 12 -2 19 -12 11 -14 13 -14 14 -2 0 22 -39 45
-54 30 -8 -8 -6 -9 9 -4 19 7 19 7 2 -13 -21 -25 -47 -26 -47 -1 0 10 -4 18
-10 18 -5 0 -10 -6 -10 -13 0 -7 -5 -18 -12 -25 -9 -9 -16 -8 -30 5 -17 15
-18 15 -18 0 0 -20 -4 -21 -31 -7 -16 9 -19 7 -19 -15 0 -22 -3 -25 -21 -20
-18 6 -19 5 -10 -13 16 -29 15 -30 -21 -34 l-33 -3 33 -18 c19 -10 30 -22 26
-29 -5 -7 -2 -8 7 -3 8 4 1 -4 -16 -19 -17 -14 -24 -25 -16 -26 8 0 11 -7 8
-19 -4 -17 -2 -18 12 -9 18 11 20 17 24 66 1 15 6 33 11 41 6 10 5 12 -2 7 -7
-4 -10 -2 -6 7 6 16 34 19 34 4 0 -6 3 -7 7 -4 3 4 17 -3 30 -15 l23 -21 -2
41 c-1 23 -5 39 -9 37 -4 -3 -10 2 -13 10 -4 12 -2 13 13 5 11 -5 21 -15 24
-22 3 -9 8 -6 13 7 8 22 34 51 34 39 0 -3 6 -1 14 5 10 8 16 9 21 1 3 -5 2
-10 -3 -10 -16 0 -21 -39 -6 -50 10 -9 12 -7 8 14 -2 13 1 28 7 31 7 5 9 -4 7
-26 -2 -27 -7 -33 -22 -31 -17 3 -18 -1 -13 -50 4 -29 7 -61 7 -72 0 -16 2
-17 18 -5 15 13 16 12 3 -3 -7 -10 -17 -15 -22 -13 -10 7 -31 -30 -22 -38 8
-9 -18 -68 -27 -62 -5 3 -6 -3 -4 -12 2 -10 0 -40 -5 -68 -7 -39 -9 -43 -11
-20 -2 29 -2 29 -9 5 -10 -37 -37 -37 -50 1 -10 28 -13 30 -28 18 -16 -13 -17
-12 -5 3 12 14 10 21 -9 47 -12 17 -27 27 -32 24 -6 -3 -7 -1 -3 5 8 13 -65
74 -82 67 -7 -3 -10 -1 -7 4 3 6 -2 14 -11 19 -16 9 -15 12 6 42 l24 33 -25
21 c-21 19 -24 30 -27 110 -2 50 -10 99 -17 110 -19 31 -29 156 -13 156 9 0 8
3 -2 10 -12 8 -10 10 10 11 16 1 19 3 8 6 -25 7 -32 35 -11 51 10 7 17 18 15
23 -1 6 2 8 8 4 5 -3 10 -1 10 4 0 10 -34 16 -70 12 -12 -1 -12 0 -2 7 10 7 7
14 -12 33 -28 27 -35 55 -11 45 10 -4 15 1 15 14 0 32 63 59 89 37 8 -7 17
-11 20 -9 14 6 11 -49 -5 -84 -19 -45 -24 -66 -23 -111 0 -55 3 -73 10 -73 4
0 10 -8 12 -17 3 -10 5 -3 6 15 1 23 5 31 14 27 6 -4 3 1 -7 9 -11 9 -15 16
-8 16 6 0 9 6 6 14 -3 8 2 16 13 19 16 4 16 5 1 6 -11 1 -16 7 -13 16 16 49
15 48 30 35 19 -16 19 -31 0 -24 -8 4 -15 1 -15 -5 0 -6 4 -11 10 -11 5 0 13
-12 16 -26 5 -18 10 -22 17 -15 6 6 19 11 29 11 26 0 22 15 -12 42 l-31 24 16
38 c9 21 15 39 13 41 -2 1 -13 8 -26 14 -14 8 -21 18 -18 27 3 8 9 21 13 31 4
10 2 14 -4 10 -7 -5 -9 0 -6 13 5 19 0 20 -96 20 l-101 0 0 -51z m211 -63 c12
7 11 -7 -4 -33 -8 -14 -17 -19 -25 -14 -11 6 -11 13 0 36 7 15 14 22 16 16 2
-6 8 -9 13 -5z m-254 -31 c0 -8 -4 -12 -9 -9 -4 3 -8 9 -8 15 0 5 4 9 8 9 5 0
9 -7 9 -15z m143 -61 c0 -2 -9 -4 -21 -4 -11 0 -18 4 -14 10 5 8 35 3 35 -6z
m-712 -28 c-7 -8 -15 -12 -17 -11 -5 6 10 25 20 25 5 0 4 -6 -3 -14z m849 1
c0 -8 -6 -14 -14 -14 -14 0 -17 10 -6 20 10 11 20 8 20 -6z m-873 -80 c23 -17
13 -57 -14 -57 -10 0 -25 -3 -33 -6 -11 -4 -17 4 -22 25 -3 17 -4 35 0 41 9
14 48 12 69 -3z m-84 -82 c15 -18 10 -45 -12 -59 -33 -20 -69 20 -54 60 7 18
50 18 66 -1z m-233 -55 c4 -12 3 -13 -5 -1 -5 7 -15 10 -21 7 -6 -4 -11 -2
-11 4 0 17 33 8 37 -10z m498 0 c-3 -5 0 -10 7 -10 9 0 9 -3 -2 -10 -10 -6
-11 -10 -2 -10 6 0 12 -7 12 -16 0 -8 -4 -13 -9 -10 -5 4 -11 1 -13 -6 -3 -7
-7 -5 -11 6 -4 9 -3 15 3 11 5 -3 8 4 7 15 -1 11 -6 20 -12 20 -5 0 -3 5 5 10
19 12 23 12 15 0z m357 -7 c4 -13 -1 -18 -18 -18 -18 0 -20 3 -13 18 5 9 14
17 18 17 5 0 11 -8 13 -17z m27 -78 c30 -8 59 -11 64 -8 6 4 7 1 2 -7 -6 -10
-4 -12 9 -7 10 4 15 3 11 -3 -6 -9 8 -14 28 -11 5 1 6 -3 2 -8 -3 -6 6 -18 21
-27 l26 -18 -22 -18 c-14 -11 -24 -32 -26 -53 -2 -19 -12 -56 -23 -82 l-21
-48 21 28 c11 15 26 24 31 21 7 -4 8 -2 4 4 -4 7 -1 12 8 12 25 0 19 -38 -9
-66 -16 -16 -34 -24 -48 -22 -13 2 -29 -5 -39 -18 -20 -25 -97 -49 -130 -41
-34 9 -108 75 -108 97 0 12 -5 17 -13 14 -14 -5 -40 20 -50 48 -3 10 2 27 13
40 17 21 19 21 25 5 4 -9 4 -25 0 -35 -4 -11 -3 -13 3 -7 16 17 20 130 5 144
-34 31 -4 55 87 71 66 11 70 11 129 -5z m651 -119 c0 -2 -7 -6 -15 -10 -8 -3
-15 -1 -15 4 0 6 7 10 15 10 8 0 15 -2 15 -4z m0 -32 c0 -8 -5 -12 -10 -9 -6
4 -8 11 -5 16 9 14 15 11 15 -7z m50 12 c0 -2 -7 -7 -16 -10 -8 -3 -12 -2 -9
4 6 10 25 14 25 6z m-973 -223 c-4 -3 -1 -13 6 -22 11 -14 10 -14 -5 -2 -16
12 -16 31 -1 31 4 0 3 -3 0 -7z m148 -3 c3 -5 1 -10 -4 -10 -6 0 -11 5 -11 10
0 6 2 10 4 10 3 0 8 -4 11 -10z m4 -16 c5 3 21 2 36 -4 19 -7 31 -7 40 0 9 8
15 8 20 0 3 -6 11 -7 17 -4 7 5 8 2 4 -5 -5 -7 2 -35 14 -62 26 -62 20 -72
-56 -88 -41 -8 -68 -8 -100 0 -49 13 -53 25 -30 88 10 29 13 31 25 17 7 -9 26
-16 41 -16 33 0 80 35 80 58 -1 14 -3 13 -12 -3 -16 -30 -39 -45 -68 -45 -34
0 -50 17 -50 53 0 25 2 27 15 17 8 -6 18 -9 24 -6z m753 -45 c29 0 63 3 76 6
28 9 28 -4 1 -39 -15 -20 -25 -24 -32 -17 -19 19 -57 13 -57 -9 0 -48 -84 -10
-114 52 -27 52 -20 59 28 32 32 -18 60 -25 98 -25z m-29 -226 c-7 -2 -19 -2
-25 0 -7 3 -2 5 12 5 14 0 19 -2 13 -5z m-63 -154 c0 -5 -7 -9 -15 -9 -9 0
-12 6 -9 15 6 15 24 11 24 -6z"/>
<path d="M1546 1065 c4 -8 1 -15 -5 -15 -6 0 -11 5 -11 10 0 13 -31 13 -50 -1
-13 -9 -13 -10 2 -6 9 3 24 -1 35 -9 15 -11 15 -13 1 -8 -20 7 -52 -37 -45
-63 4 -15 5 -14 6 4 0 12 5 25 11 28 6 4 8 -5 5 -22 -6 -32 7 -59 24 -49 13 8
32 76 25 87 -3 5 2 6 10 3 8 -3 16 -19 18 -36 l3 -30 27 22 c35 27 72 35 64
15 -4 -12 5 -10 36 6 49 25 34 45 -18 23 -21 -9 -34 -10 -34 -4 0 6 7 13 15
16 25 10 17 23 -22 33 -58 16 -104 14 -97 -4z m-18 -63 c6 -18 -15 -14 -22 4
-4 10 -1 14 6 12 6 -2 14 -10 16 -16z"/>
<path d="M1717 983 c3 -7 9 -10 14 -7 14 8 11 21 -5 21 -8 0 -12 -6 -9 -14z"/>
<path d="M1701 973 c0 -7 -7 -10 -15 -7 -18 7 -27 -31 -12 -51 11 -15 13 -15
25 -2 7 9 11 28 8 44 -2 15 -5 23 -6 16z"/>
<path d="M1751 857 c-13 -21 -12 -21 5 -5 10 10 16 20 13 22 -3 3 -11 -5 -18
-17z"/>
<path d="M1520 862 c0 -29 12 -38 45 -34 50 6 71 -3 55 -26 -7 -9 -1 -4 14 11
35 37 33 43 -11 43 -21 -1 -53 3 -70 7 -21 6 -33 5 -33 -1z"/>
<path d="M1547 799 c7 -7 15 -10 18 -7 3 3 -2 9 -12 12 -14 6 -15 5 -6 -5z"/>
<path d="M1614 698 l-19 -23 23 19 c21 18 27 26 19 26 -2 0 -12 -10 -23 -22z"/>
<path d="M2040 1670 c-13 -8 -12 -10 3 -10 9 0 17 5 17 10 0 12 -1 12 -20 0z"/>
<path d="M2105 1670 c-3 -6 -3 -19 0 -31 4 -11 1 -26 -5 -34 -10 -12 -9 -15
10 -15 14 0 20 -5 17 -12 -19 -53 -19 -53 42 -89 54 -32 66 -35 121 -33 42 3
60 0 61 -9 0 -6 4 -2 9 11 5 12 17 22 25 22 12 0 15 8 13 33 -2 17 -5 30 -8
28 -7 -6 -50 18 -49 27 1 4 1 31 0 60 l-1 52 -114 0 c-67 0 -117 -4 -121 -10z
m131 -50 c-1 -52 -6 -59 -24 -37 -8 10 -7 23 5 50 10 20 18 37 19 37 0 0 1
-22 0 -50z"/>
<path d="M2693 1661 c3 -14 1 -18 -9 -14 -10 3 -14 -3 -14 -20 l0 -25 -87 5
c-49 3 -86 3 -83 0 4 -3 115 -16 152 -17 9 0 5 -36 -5 -46 -4 -4 -7 -1 -7 6 0
9 -5 7 -14 -6 -13 -16 -18 -17 -35 -6 -18 10 -21 10 -21 -2 0 -8 5 -18 10 -21
17 -10 12 -38 -6 -31 -12 4 -14 1 -9 -14 4 -14 -2 -28 -22 -46 -24 -23 -25
-25 -5 -15 13 7 26 19 29 27 3 7 9 11 15 8 5 -3 1 -15 -9 -27 -10 -11 1 -6 24
13 38 30 50 59 19 47 -7 -3 -13 0 -13 7 0 6 8 12 18 12 10 0 17 -5 16 -10 -1
-6 4 -10 11 -11 7 0 16 -6 21 -13 6 -10 11 -9 22 4 13 16 12 17 -5 10 -19 -7
-19 -6 -2 13 14 15 21 17 30 9 10 -9 8 -16 -8 -32 -19 -19 -19 -19 1 -27 37
-14 61 -56 67 -122 9 -86 27 -160 36 -150 4 4 17 34 28 65 19 50 19 56 5 51
-11 -4 -14 -3 -9 5 4 7 2 12 -3 12 -6 0 -11 11 -11 24 0 13 -6 27 -12 29 -10
4 -10 6 0 6 6 1 12 8 12 16 0 8 6 15 14 15 30 0 22 26 -18 63 -33 31 -35 34
-9 16 18 -13 35 -20 39 -17 5 6 7 56 5 181 l-1 47 -81 0 c-75 0 -81 -1 -76
-19z m74 -167 c-3 -3 -12 -4 -19 -1 -8 3 -5 6 6 6 11 1 17 -2 13 -5z"/>
<path d="M2864 1666 c-3 -8 -4 -25 -2 -38 3 -22 6 -23 44 -16 37 8 41 12 42
38 1 28 -1 30 -39 30 -25 0 -42 -5 -45 -14z"/>
<path d="M2967 1641 c-15 -26 -16 -31 -2 -44 8 -9 15 -30 15 -47 0 -18 4 -29
10 -25 12 7 14 145 2 145 -4 0 -15 -13 -25 -29z"/>
<path d="M1175 1649 c-11 -17 1 -21 15 -4 8 9 8 15 2 15 -6 0 -14 -5 -17 -11z"/>
<path d="M1311 1648 c17 -14 14 -42 -3 -32 -7 4 -8 2 -4 -4 4 -7 3 -12 -3 -12
-5 0 -13 10 -17 22 -6 21 -7 21 -17 2 -15 -25 -17 -44 -6 -44 4 0 5 -8 2 -17
-6 -15 -5 -16 9 -3 9 8 13 17 9 20 -3 3 -7 11 -9 19 -3 12 -1 12 14 0 14 -12
19 -10 39 15 14 17 25 24 28 17 4 -7 5 -8 3 0 -1 6 -6 11 -11 11 -6 0 -19 4
-30 10 -17 8 -18 7 -4 -4z"/>
<path d="M823 1628 c2 -7 10 -12 16 -10 6 1 11 -4 11 -12 0 -16 87 -92 96 -83
3 3 7 11 8 19 6 28 17 45 30 45 11 0 12 -4 3 -18 -6 -10 -16 -15 -22 -13 -5 3
-2 -1 7 -9 10 -8 16 -16 13 -19 -3 -2 1 -5 9 -5 8 0 11 8 8 19 -2 10 2 20 12
24 9 3 13 11 9 18 -4 6 1 5 10 -3 10 -8 21 -11 25 -7 4 4 -2 14 -13 23 -15 11
-39 14 -101 10 -71 -4 -82 -2 -92 14 -14 21 -36 26 -29 7z m117 -58 c-20 -13
-40 -13 -40 0 0 6 12 10 28 10 21 0 24 -2 12 -10z"/>
<path d="M1206 1624 c-3 -8 -10 -12 -16 -9 -6 4 -5 -5 2 -22 17 -40 24 -47 32
-28 4 10 2 14 -6 9 -8 -5 -9 3 -5 29 6 39 3 48 -7 21z"/>
<path d="M1404 1632 c4 -7 1 -12 -8 -12 -9 0 -16 -5 -16 -11 0 -6 -6 -9 -14
-6 -19 8 -56 -25 -56 -49 0 -16 2 -17 10 -4 8 13 10 12 10 -2 0 -10 3 -18 8
-18 12 0 34 17 35 26 0 5 11 17 24 27 25 20 30 42 11 53 -7 4 -8 3 -4 -4z"/>
<path d="M1805 1610 c-3 -5 -1 -10 5 -10 6 0 8 -4 5 -10 -3 -5 -2 -10 4 -10
17 0 21 17 7 29 -10 8 -16 9 -21 1z"/>
<path d="M1875 1600 c-3 -5 -1 -10 4 -10 6 0 11 5 11 10 0 6 -2 10 -4 10 -3 0
-8 -4 -11 -10z"/>
<path d="M2448 1593 c7 -3 16 -2 19 1 4 3 -2 6 -13 5 -11 0 -14 -3 -6 -6z"/>
<path d="M2905 1590 c-4 -6 -14 -9 -23 -8 -14 2 -17 -6 -20 -44 -2 -43 8 -62
22 -39 3 4 18 6 32 3 23 -4 26 -2 21 12 -4 10 -4 23 0 29 14 23 9 57 -9 57 -9
0 -20 -5 -23 -10z"/>
<path d="M1173 1574 c-3 -8 -1 -20 4 -25 7 -7 11 -2 11 15 0 29 -6 33 -15 10z"/>
<path d="M2360 1575 c0 -8 29 -12 39 -5 9 5 4 8 -13 8 -14 0 -26 -2 -26 -3z"/>
<path d="M2478 1573 c6 -2 18 -2 25 0 6 3 1 5 -13 5 -14 0 -19 -2 -12 -5z"/>
<path d="M2558 1573 c12 -2 32 -2 45 0 12 2 2 4 -23 4 -25 0 -35 -2 -22 -4z"/>
<path d="M335 1561 c-3 -5 -1 -12 5 -16 5 -3 10 1 10 9 0 18 -6 21 -15 7z"/>
<path d="M2438 1563 c7 -3 16 -2 19 1 4 3 -2 6 -13 5 -11 0 -14 -3 -6 -6z"/>
<path d="M2517 1533 c27 -14 32 -21 28 -42 -5 -22 -4 -23 4 -6 5 11 10 23 10
27 1 8 -53 38 -66 37 -4 0 7 -8 24 -16z"/>
<path d="M1810 1521 c0 -6 5 -13 12 -17 7 -4 8 -3 4 4 -4 7 -1 12 9 12 10 0
13 -5 9 -12 -5 -9 -2 -9 9 1 23 18 22 21 -13 21 -16 0 -30 -4 -30 -9z"/>
<path d="M978 1503 c7 -3 16 -2 19 1 4 3 -2 6 -13 5 -11 0 -14 -3 -6 -6z"/>
<path d="M2465 1470 c4 -6 11 -8 16 -5 14 9 11 15 -7 15 -8 0 -12 -5 -9 -10z"/>
<path d="M2888 1473 c-10 -2 -18 -8 -19 -11 0 -4 -1 -24 -2 -44 -2 -34 0 -37
23 -34 47 7 55 15 54 54 -1 38 -14 47 -56 35z"/>
<path d="M130 1466 c0 -2 7 -7 16 -10 8 -3 12 -2 9 4 -6 10 -25 14 -25 6z"/>
<path d="M2452 1438 c3 -8 17 -12 34 -10 22 2 26 1 14 -7 -8 -6 -10 -11 -4
-11 6 0 18 8 27 18 14 16 13 17 -30 20 -32 2 -44 -1 -41 -10z"/>
<path d="M985 1429 c-4 -6 -5 -12 -2 -15 2 -3 7 2 10 11 7 17 1 20 -8 4z"/>
<path d="M2261 1408 c-17 -46 -23 -88 -12 -88 6 0 11 11 11 25 0 15 7 39 15
55 9 18 11 30 5 30 -6 0 -14 -10 -19 -22z"/>
<path d="M880 1405 c-7 -9 -10 -18 -7 -21 3 -3 10 4 17 15 13 25 8 27 -10 6z"/>
<path d="M1181 1411 c-9 -6 -11 -14 -4 -26 9 -15 11 -14 15 9 3 14 5 26 4 26
0 0 -7 -4 -15 -9z"/>
<path d="M1639 1393 c-13 -16 -12 -17 4 -4 16 13 21 21 13 21 -2 0 -10 -8 -17
-17z"/>
<path d="M2297 1383 c-14 -13 -7 -62 10 -71 12 -7 25 -3 50 17 46 37 43 55
-10 58 -24 2 -47 0 -50 -4z"/>
<path d="M2636 1367 c2 -7 15 -13 29 -13 33 -2 32 2 -4 14 -22 8 -29 8 -25 -1z"/>
<path d="M1187 1341 c-4 -17 -3 -21 5 -13 5 5 8 16 6 23 -3 8 -7 3 -11 -10z"/>
<path d="M1622 1340 c0 -14 2 -19 5 -12 2 6 2 18 0 25 -3 6 -5 1 -5 -13z"/>
<path d="M2876 1328 l-18 -33 21 25 c18 22 26 40 18 40 -1 0 -11 -15 -21 -32z"/>
<path d="M2365 1310 c-16 -16 -27 -32 -24 -34 4 -5 69 50 69 59 0 13 -19 2
-45 -25z"/>
<path d="M567 1323 c-9 -3 -15 -8 -13 -12 6 -9 66 -2 66 8 0 8 -27 10 -53 4z"/>
<path d="M2985 1320 c3 -5 8 -10 11 -10 2 0 4 5 4 10 0 6 -5 10 -11 10 -5 0
-7 -4 -4 -10z"/>
<path d="M2439 1315 c-1 -3 -2 -9 -3 -14 0 -5 -4 -13 -8 -17 -11 -11 -10 -24
2 -24 6 0 10 8 10 17 0 13 10 7 38 -20 21 -21 41 -35 45 -32 4 3 5 2 2 -1 -2
-4 13 -28 34 -53 21 -25 40 -53 43 -61 3 -8 7 2 9 22 3 20 1 34 -3 32 -4 -3
-8 -1 -8 5 0 6 -6 8 -14 5 -9 -3 -13 2 -12 18 1 19 8 24 36 26 33 3 34 3 20
-15 -8 -11 -5 -8 8 5 27 29 31 67 5 57 -10 -3 -30 -9 -46 -12 -15 -3 -30 -9
-32 -13 -10 -17 -78 14 -89 40 -6 16 -17 25 -25 22 -8 -3 -11 0 -7 7 4 6 5 11
2 11 -3 0 -7 -2 -7 -5z"/>
<path d="M1869 1233 c-13 -16 -12 -17 4 -4 16 13 21 21 13 21 -2 0 -10 -8 -17
-17z"/>
<path d="M2390 1230 c-6 -11 -15 -18 -20 -15 -6 3 -7 -1 -4 -9 3 -9 1 -16 -6
-16 -6 0 -8 -5 -5 -11 5 -6 13 -3 22 10 8 12 17 19 21 17 4 -2 8 7 8 20 2 29
-2 30 -16 4z"/>
<path d="M2690 1226 c-8 -11 -9 -20 -1 -33 6 -10 11 -16 11 -13 5 22 8 60 6
60 -2 0 -9 -7 -16 -14z"/>
<path d="M554 1207 c3 -24 19 -27 24 -4 2 8 -4 17 -12 20 -12 5 -15 1 -12 -16z"/>
<path d="M2185 1210 c-11 -5 -17 -9 -13 -9 3 -1 13 -4 21 -7 8 -3 17 2 20 10
7 18 2 19 -28 6z"/>
<path d="M2980 1210 c0 -5 -13 -25 -30 -43 -16 -19 -30 -39 -30 -45 0 -13 28
-23 35 -12 3 4 0 10 -6 12 -6 2 0 15 13 29 20 22 35 69 22 69 -2 0 -4 -4 -4
-10z"/>
<path d="M2644 1185 c-18 -14 -18 -14 4 -8 12 3 22 9 22 14 0 12 -3 11 -26 -6z"/>
<path d="M1160 1147 c-39 -81 -148 -119 -227 -79 -22 12 -52 35 -67 52 -14 17
-26 27 -26 22 0 -11 65 -72 103 -96 19 -13 33 -14 75 -6 29 5 58 7 65 4 19 -7
81 45 105 89 12 22 15 34 8 27 -11 -8 -15 -8 -18 4 -2 9 -9 2 -18 -17z m11
-25 c-6 -12 -26 -31 -43 -43 -32 -22 -32 -22 5 15 20 20 37 42 37 48 0 6 3 9
6 6 3 -4 1 -15 -5 -26z"/>
<path d="M2402 1162 c-24 -4 -21 -22 3 -22 21 0 55 -32 48 -44 -3 -6 -3 -8 2
-4 10 10 35 -17 35 -39 1 -16 2 -16 13 -3 7 9 22 23 35 32 20 13 21 17 7 28
-13 11 -14 10 -10 -3 10 -24 -14 -31 -37 -10 -11 10 -23 16 -26 13 -3 -3 -15
9 -27 25 -14 21 -27 29 -43 27z m99 -79 c13 -16 12 -17 -3 -4 -17 13 -22 21
-14 21 2 0 10 -8 17 -17z"/>
<path d="M2340 1139 c0 -5 5 -7 10 -4 6 3 10 8 10 11 0 2 -4 4 -10 4 -5 0 -10
-5 -10 -11z"/>
<path d="M2870 1125 c0 -6 5 -16 11 -22 9 -9 8 -16 -4 -27 -9 -9 -20 -16 -25
-16 -6 0 -12 -7 -15 -14 -4 -11 -1 -13 10 -9 13 5 15 2 10 -12 -6 -15 -5 -16
8 -5 11 9 15 9 15 1 0 -7 4 -10 9 -7 5 3 8 -2 7 -12 -1 -14 9 -17 52 -19 50
-2 53 -1 50 20 -2 16 -10 22 -28 23 -41 2 -43 3 -30 19 10 12 10 15 -3 15 -8
0 -20 -7 -27 -15 -14 -17 -23 -13 -26 10 -1 8 4 15 12 15 10 0 12 5 8 13 -6 9
-4 9 8 -1 9 -8 19 -9 22 -4 7 11 -12 29 -34 34 -8 2 -18 8 -22 13 -5 7 -8 6
-8 0z"/>
<path d="M2142 1078 c-6 -6 -12 -18 -12 -26 0 -12 -3 -12 -17 -1 -15 11 -16
11 -6 0 6 -7 9 -21 6 -30 -3 -9 -7 -22 -9 -30 -4 -11 -9 -10 -26 5 -12 11 -18
13 -14 7 4 -7 2 -13 -4 -13 -6 0 -8 -4 -5 -10 8 -13 39 -8 59 9 11 9 16 10 16
2 0 -6 6 -11 14 -11 15 0 26 66 16 95 -4 12 -8 13 -18 3z m7 -50 c0 -18 -3
-27 -6 -20 -2 6 -9 10 -14 6 -5 -3 -4 6 3 20 15 34 18 33 17 -6z"/>
<path d="M317 1065 c-4 -8 -3 -16 1 -19 4 -3 9 4 9 15 2 23 -3 25 -10 4z"/>
<path d="M1190 1055 c13 -14 26 -25 28 -25 3 0 -5 11 -18 25 -13 14 -26 25
-28 25 -3 0 5 -11 18 -25z"/>
<path d="M483 1063 c9 -2 25 -2 35 0 9 3 1 5 -18 5 -19 0 -27 -2 -17 -5z"/>
<path d="M658 1063 c12 -2 32 -2 45 0 12 2 2 4 -23 4 -25 0 -35 -2 -22 -4z"/>
<path d="M2899 1053 c-13 -16 -12 -17 4 -4 9 7 17 15 17 17 0 8 -8 3 -21 -13z"/>
<path d="M1005 1010 c10 -11 20 -20 22 -20 2 0 -2 9 -9 20 -7 11 -17 20 -22
20 -5 0 -1 -9 9 -20z"/>
<path d="M2770 1005 c13 -14 26 -25 28 -25 3 0 -5 11 -18 25 -13 14 -26 25
-28 25 -3 0 5 -11 18 -25z"/>
<path d="M2025 1010 c-3 -6 1 -7 9 -4 18 7 21 14 7 14 -6 0 -13 -4 -16 -10z"/>
<path d="M2820 1010 c0 -5 5 -10 11 -10 5 0 7 5 4 10 -3 6 -8 10 -11 10 -2 0
-4 -4 -4 -10z"/>
<path d="M240 985 c-7 -9 -11 -17 -9 -20 3 -2 10 5 17 15 14 24 10 26 -8 5z"/>
<path d="M290 985 c-15 -18 -4 -56 16 -48 15 6 19 48 5 57 -5 3 -14 -1 -21 -9z"/>
<path d="M1237 982 c2 -8 3 -18 3 -23 0 -5 18 -18 39 -29 38 -19 59 -50 46
-69 -3 -5 -1 -12 5 -16 5 -3 10 -11 10 -16 0 -6 -5 -7 -12 -3 -7 4 -8 3 -4 -5
13 -20 -22 -24 -70 -7 -58 20 -49 8 11 -15 43 -16 44 -16 64 5 25 27 26 34 6
84 -11 28 -25 42 -48 50 -18 7 -38 22 -43 34 -6 13 -9 17 -7 10z"/>
<path d="M773 968 c-11 -13 -27 -40 -34 -60 -7 -21 -17 -38 -21 -38 -4 0 -8
-10 -8 -22 1 -21 2 -21 11 -5 5 9 17 17 25 17 8 0 12 -5 9 -10 -4 -6 -10 -8
-15 -5 -18 11 -15 -41 4 -58 26 -24 50 -18 54 13 2 14 6 32 9 40 3 8 5 23 4
33 -1 9 3 17 8 17 6 0 11 -20 11 -46 l0 -46 27 17 c24 16 26 16 20 1 -4 -9 -3
-15 1 -12 4 2 12 2 18 -2 16 -12 46 -63 40 -70 -3 -3 -6 -2 -6 2 0 4 -6 1 -14
-7 -9 -8 -13 -25 -10 -38 5 -21 4 -22 -6 -6 -6 10 -9 25 -6 32 3 8 1 17 -4 20
-5 3 -13 -7 -16 -22 -5 -17 -3 -28 4 -31 7 -2 12 -14 12 -27 0 -17 5 -23 20
-22 16 1 19 7 16 44 -2 24 1 43 6 43 10 0 8 -75 -3 -105 -11 -31 -59 -83 -60
-65 0 9 -4 5 -9 -7 -13 -33 -55 -30 -97 7 -18 16 -38 30 -44 30 -6 0 -7 5 -3
12 4 6 3 8 -4 5 -14 -9 -43 3 -36 14 3 5 -2 6 -11 3 -11 -5 -14 -2 -9 12 3 12
-1 10 -11 -6 -15 -23 -16 -24 -12 -3 3 12 2 22 -2 21 -19 -2 -22 4 -10 19 10
11 10 14 2 9 -19 -11 -17 62 2 80 8 9 16 29 17 45 0 16 1 34 2 41 1 7 -18 13
-45 15 -50 4 -69 -12 -49 -45 9 -16 9 -16 10 1 0 11 8 17 23 17 18 0 19 -2 7
-11 -12 -8 -10 -9 7 -4 12 3 24 1 28 -5 3 -6 -3 -10 -17 -10 -13 0 -36 -9 -52
-19 -17 -11 -34 -17 -39 -14 -5 3 -4 9 3 13 8 5 5 9 -9 13 -29 7 -26 -7 6 -33
18 -14 37 -20 55 -18 27 4 28 3 28 -38 0 -41 -2 -43 -34 -50 -19 -3 -42 -14
-52 -25 -9 -10 -20 -16 -25 -13 -5 3 9 -32 31 -78 54 -115 55 -131 7 -142 -30
-8 -41 -7 -49 5 -8 11 -9 11 -4 -3 4 -14 0 -18 -19 -18 -14 0 -25 -4 -25 -10
0 -25 34 -90 47 -90 10 0 14 -7 10 -19 -5 -21 10 -31 49 -31 13 0 24 -5 24
-11 0 -5 -4 -8 -9 -5 -5 3 -14 0 -20 -8 -18 -22 -61 -8 -61 20 0 13 -4 24 -9
24 -13 0 -19 -43 -10 -68 5 -14 4 -22 -2 -22 -6 0 -7 -4 -4 -10 3 -5 11 -10
16 -10 6 0 7 4 4 10 -3 5 1 10 9 10 9 0 16 5 16 11 0 6 -7 9 -15 5 -8 -3 -15
-1 -15 4 0 16 28 11 38 -6 7 -13 11 -12 26 11 21 31 39 24 29 -13 -8 -34 -20
-42 -47 -32 -15 6 -27 2 -41 -11 -26 -24 -65 -15 -65 14 0 21 0 21 16 -1 8
-12 20 -20 25 -17 5 4 2 13 -7 22 -11 11 -12 19 -5 26 17 17 13 27 -11 27 -17
0 -19 -3 -9 -9 11 -7 11 -10 -2 -17 -8 -5 -18 -25 -22 -44 -6 -32 -3 -38 27
-60 34 -25 57 -27 95 -8 13 6 26 9 29 5 7 -7 -17 -44 -29 -45 -17 -1 -15 -8 2
-9 11 -1 28 9 40 21 l21 22 -40 23 c-39 22 -52 41 -27 41 6 0 26 -9 43 -19
l31 -19 -4 63 c-2 38 0 66 7 70 5 3 10 15 10 26 0 31 26 22 65 -23 26 -31 31
-34 16 -11 -12 18 -26 35 -32 39 -5 3 -7 15 -4 27 4 12 3 17 -2 11 -14 -20
-63 -23 -73 -5 -5 9 -10 11 -10 4 0 -6 5 -15 10 -18 18 -11 0 -25 -31 -25 -19
0 -29 5 -29 15 0 8 6 15 14 15 7 0 19 6 25 14 6 7 22 11 35 9 18 -4 26 0 31
16 6 21 35 30 35 11 0 -5 6 -7 14 -4 9 4 16 -3 19 -18 l4 -23 2 23 c0 12 6 22
11 22 6 0 9 13 8 29 -1 16 -7 29 -13 28 -6 -1 -10 21 -9 57 1 35 -2 53 -7 45
-15 -25 -10 26 6 57 13 25 13 30 -3 47 -11 12 -18 15 -20 7 -3 -7 -1 -15 4
-19 13 -9 17 -41 6 -41 -13 0 -24 62 -14 72 10 10 91 -33 117 -62 10 -11 31
-20 47 -20 25 0 28 -3 28 -34 0 -18 5 -57 10 -86 7 -35 7 -57 0 -65 -13 -16
-40 -104 -39 -130 0 -11 6 2 13 28 14 50 45 96 47 67 0 -8 5 0 12 18 7 19 15
32 18 30 3 -1 13 3 21 10 13 10 17 10 21 0 4 -10 10 -8 22 7 12 15 15 31 10
62 -4 25 -2 44 5 48 7 4 7 12 -1 27 -8 15 -8 23 1 32 9 8 14 8 17 -2 3 -6 8
-10 12 -7 5 2 19 -7 32 -21 20 -22 22 -28 12 -55 -9 -24 -9 -28 0 -20 25 20
89 -30 150 -119 57 -84 58 -86 51 -137 -5 -40 -2 -59 10 -78 9 -13 16 -38 16
-55 0 -27 3 -30 33 -29 17 0 26 3 20 6 -24 9 -13 20 17 15 17 -2 30 -8 30 -13
0 -5 14 -9 31 -9 26 0 29 3 24 20 -5 15 0 26 18 40 16 13 28 35 32 60 8 49 25
53 25 6 0 -18 3 -54 6 -80 l7 -46 41 0 c25 0 51 8 66 20 34 27 90 27 90 1 0
-19 10 -20 290 -20 160 0 290 3 290 5 0 3 -9 23 -20 44 -20 39 -127 133 -141
124 -4 -2 -14 2 -22 10 -7 8 -30 19 -49 24 -35 9 -37 9 -72 -38 -38 -49 -59
-97 -54 -121 2 -11 -13 -14 -69 -14 -39 0 -69 3 -66 8 2 4 -3 7 -11 7 -9 0
-16 3 -16 8 -1 4 -7 32 -14 64 l-14 56 28 -10 c53 -18 135 20 114 53 -3 5 -8
28 -10 52 -2 23 -7 60 -10 83 -5 36 -3 41 21 52 15 7 25 15 22 18 -7 8 -54
-25 -87 -61 -20 -21 -22 -28 -10 -35 11 -7 12 -13 1 -36 -9 -20 -15 -24 -23
-16 -9 9 -16 3 -31 -20 -17 -29 -20 -30 -29 -14 -6 10 -12 41 -14 68 -1 27 -8
56 -15 64 -6 7 -8 21 -5 30 4 9 -11 1 -33 -19 -47 -42 -135 -72 -184 -62 -41
9 -147 67 -172 94 -26 29 -34 12 -36 -69 -2 -125 -15 -119 -23 10 -4 69 -8
130 -9 137 0 7 -21 15 -46 18 -25 3 -66 10 -91 15 -34 7 -27 8 30 2 41 -3 107
-7 147 -7 45 0 69 -3 66 -10 -4 -6 -2 -6 3 -2 5 5 9 12 9 16 0 4 17 24 38 43
30 28 37 43 37 72 0 20 -7 48 -16 61 -15 23 -18 23 -37 10 -22 -16 -47 -5 -47
21 0 9 -12 14 -34 14 -19 0 -38 5 -41 10 -7 12 -41 13 -48 3 -2 -5 -2 -3 -1 4
4 15 -18 73 -28 73 -4 0 -5 -7 -1 -16 3 -8 -4 -25 -17 -39 -21 -23 -20 -52 2
-39 7 4 8 2 4 -5 -6 -9 -11 -9 -22 0 -11 9 -15 8 -20 -5 -8 -21 -21 -20 -28 2
-8 23 -116 138 -116 123 0 -7 -3 -10 -7 -8 -5 3 -9 -10 -10 -29 -1 -19 3 -32
8 -29 5 4 9 17 9 31 0 14 4 22 10 19 15 -10 12 -41 -7 -64 l-18 -21 -37 34
c-21 19 -38 37 -38 40 0 13 21 5 40 -16 l20 -22 -2 25 c-2 19 -8 24 -32 26
-36 3 -61 23 -29 23 12 0 24 4 27 8 3 5 -4 8 -14 8 -11 -1 -20 4 -20 9 -2 17
28 17 61 1 22 -11 28 -12 20 -2 -6 7 -9 15 -7 17 2 2 -7 5 -21 6 -14 0 -42 17
-62 37 -43 42 -78 46 -108 14z m87 -139 c0 -5 -4 -9 -8 -9 -5 0 -9 7 -9 15 0
8 4 12 9 9 4 -3 8 -9 8 -15z m-220 1 c0 -5 -8 -10 -17 -10 -15 0 -16 2 -3 10
19 12 20 12 20 0z m-80 -714 c0 -3 -4 -8 -10 -11 -5 -3 -10 -1 -10 4 0 6 5 11
10 11 6 0 10 -2 10 -4z"/>
<path d="M192 955 c0 -16 2 -22 5 -12 2 9 2 23 0 30 -3 6 -5 -1 -5 -18z"/>
<path d="M391 964 c0 -11 3 -14 6 -6 3 7 2 16 -1 19 -3 4 -6 -2 -5 -13z"/>
<path d="M1270 973 c8 -4 20 -13 26 -21 9 -12 13 -12 19 -2 5 8 4 11 -2 7 -6
-4 -13 0 -17 8 -3 8 -13 15 -23 14 -14 0 -15 -2 -3 -6z"/>
<path d="M55 950 c-3 -5 -1 -10 4 -10 6 0 11 5 11 10 0 6 -2 10 -4 10 -3 0 -8
-4 -11 -10z"/>
<path d="M2040 951 c-8 -6 -17 -8 -21 -5 -4 2 -10 0 -14 -6 -3 -5 -1 -10 4
-10 6 0 11 -10 11 -22 0 -26 20 -12 25 18 1 11 8 18 15 16 6 -1 9 2 5 8 -7 12
-6 12 -25 1z"/>
<path d="M2120 950 c-8 -5 -19 -6 -25 -3 -5 4 -7 3 -3 -2 4 -4 2 -15 -4 -24
-10 -12 -8 -12 8 2 11 9 26 17 32 17 6 0 16 -8 21 -17 6 -10 10 -13 10 -8 0
21 -25 44 -39 35z"/>
<path d="M2835 940 c10 -11 20 -20 23 -20 3 0 -3 9 -13 20 -10 11 -20 20 -23
20 -3 0 3 -9 13 -20z"/>
<path d="M220 935 c0 -8 4 -15 10 -15 5 0 7 7 4 15 -4 8 -8 15 -10 15 -2 0 -4
-7 -4 -15z"/>
<path d="M260 935 c0 -8 4 -15 10 -15 5 0 7 7 4 15 -4 8 -8 15 -10 15 -2 0 -4
-7 -4 -15z"/>
<path d="M391 914 c0 -11 3 -14 6 -6 3 7 2 16 -1 19 -3 4 -6 -2 -5 -13z"/>
<path d="M575 913 c11 -2 30 -6 42 -9 13 -2 22 -10 20 -17 -1 -6 4 -11 12 -9
8 2 11 -3 8 -11 -3 -7 1 -14 8 -14 10 0 11 5 4 18 -15 29 -51 49 -84 48 -19
-1 -23 -3 -10 -6z"/>
<path d="M1090 907 c0 -2 15 -16 33 -33 l32 -29 -29 33 c-28 30 -36 37 -36 29z"/>
<path d="M2604 892 c-31 -26 -41 -51 -54 -123 -7 -41 -7 -75 -1 -94 l9 -30 1
28 c1 37 42 77 78 77 16 0 45 9 66 20 48 26 78 25 112 -2 l28 -21 -13 24 c-21
40 -70 93 -109 116 -43 27 -88 29 -117 5z"/>
<path d="M509 883 c-13 -16 -12 -17 4 -4 9 7 17 15 17 17 0 8 -8 3 -21 -13z"/>
<path d="M545 879 c-4 -6 -5 -12 -2 -15 2 -3 7 2 10 11 7 17 1 20 -8 4z"/>
<path d="M486 844 c-10 -26 -7 -41 8 -41 10 0 12 5 7 16 -5 9 -6 22 -4 29 7
18 -4 15 -11 -4z"/>
<path d="M1037 849 c7 -7 15 -10 18 -7 3 3 -2 9 -12 12 -14 6 -15 5 -6 -5z"/>
<path d="M668 833 c7 -3 16 -2 19 1 4 3 -2 6 -13 5 -11 0 -14 -3 -6 -6z"/>
<path d="M895 770 c-3 -5 -1 -10 4 -10 6 0 11 5 11 10 0 6 -2 10 -4 10 -3 0
-8 -4 -11 -10z"/>
<path d="M70 746 c0 -2 8 -10 18 -17 15 -13 16 -12 3 4 -13 16 -21 21 -21 13z"/>
<path d="M633 733 c-7 -2 -13 -12 -12 -21 0 -11 2 -12 6 -4 2 6 16 12 29 12
21 0 24 -4 24 -38 0 -51 18 -73 46 -58 21 11 21 14 7 46 -14 32 -16 33 -23 15
-7 -15 -9 -16 -9 -4 -1 9 5 22 13 28 11 10 16 6 24 -16 7 -19 11 -22 11 -10 1
10 -4 27 -10 38 -10 20 -11 20 -25 2 -13 -17 -15 -17 -25 0 -10 17 -31 21 -56
10z"/>
<path d="M2836 727 c3 -10 9 -15 12 -12 3 3 0 11 -7 18 -10 9 -11 8 -5 -6z"/>
<path d="M770 710 c0 -5 5 -10 10 -10 6 0 10 5 10 10 0 6 -4 10 -10 10 -5 0
-10 -4 -10 -10z"/>
<path d="M1732 692 c-23 -32 -29 -62 -11 -62 5 0 8 -4 5 -9 -12 -19 43 -50
127 -70 49 -12 90 -21 93 -21 2 0 4 23 4 50 0 54 -1 56 -30 38 -15 -10 -31 -9
-77 2 -55 14 -58 17 -74 59 l-16 44 -21 -31z"/>
<path d="M0 572 c0 -103 3 -133 12 -124 16 16 70 -16 63 -39 -3 -10 1 -19 10
-23 8 -3 15 -12 15 -21 0 -8 5 -15 10 -15 6 0 10 7 10 15 0 15 24 16 48 2 6
-5 12 -5 12 -1 0 4 9 -1 19 -10 18 -17 20 -17 30 2 15 28 63 44 120 40 41 -2
52 0 62 17 7 11 13 23 14 27 0 3 4 10 9 15 5 4 7 4 4 -2 -6 -12 27 -46 36 -38
11 11 6 24 -6 18 -7 -4 -5 0 5 8 13 11 16 22 12 40 -9 34 -42 42 -49 12 -3
-12 -17 -30 -31 -39 -14 -9 -23 -21 -20 -26 8 -12 -55 -24 -67 -12 -6 6 -6 12
1 16 6 4 11 12 11 18 0 6 -9 3 -19 -6 -18 -17 -21 -15 -56 27 -21 25 -48 50
-62 56 -15 7 -23 18 -21 30 2 11 -14 36 -38 62 -54 59 -67 68 -103 79 l-31 9
0 -137z m126 -101 c15 -11 20 -22 14 -26 -5 -3 -10 0 -10 7 0 10 -2 11 -8 0
-5 -7 -16 -10 -26 -6 -12 4 -14 10 -6 19 5 6 7 15 3 18 -15 15 11 6 33 -12z
m30 -55 c17 -18 5 -27 -30 -24 -31 3 -30 2 -10 22 19 20 22 20 40 2z"/>
<path d="M650 665 c0 -8 4 -15 10 -15 5 0 7 7 4 15 -4 8 -8 15 -10 15 -2 0 -4
-7 -4 -15z"/>
<path d="M871 654 c0 -11 3 -14 6 -6 3 7 2 16 -1 19 -3 4 -6 -2 -5 -13z"/>
<path d="M1957 655 c-4 -8 -3 -16 1 -19 4 -3 9 4 9 15 2 23 -3 25 -10 4z"/>
<path d="M2572 630 c0 -14 2 -19 5 -12 2 6 2 18 0 25 -3 6 -5 1 -5 -13z"/>
<path d="M294 632 c11 -10 55 -13 71 -5 8 5 -3 9 -32 10 -25 1 -42 -1 -39 -5z"/>
<path d="M2847 633 c-5 -7 -19 -13 -31 -13 -13 0 -31 -10 -40 -22 l-15 -23
-21 24 c-18 21 -20 21 -20 5 0 -32 -16 -50 -33 -36 -20 17 -80 -7 -71 -28 19
-43 16 -68 -10 -85 -14 -10 -26 -24 -26 -32 0 -12 3 -12 16 2 10 9 23 13 33 9
9 -3 23 -8 32 -11 15 -4 14 -9 -4 -46 -11 -23 -19 -53 -19 -67 0 -24 -13 -40
-32 -40 -4 0 -6 7 -3 15 6 13 -9 32 -18 23 -4 -4 11 -86 20 -110 6 -15 3 -15
-29 -6 -20 6 -36 15 -36 19 0 4 -12 4 -27 0 -21 -6 -27 -13 -25 -29 4 -24 -8
-28 -26 -10 -22 22 -56 17 -88 -14 l-31 -29 -22 27 c-11 15 -21 32 -21 38 0 6
-5 3 -11 -7 -8 -13 -7 -22 1 -32 8 -10 8 -14 -2 -18 -8 -4 -7 -6 5 -6 9 -1 17
-8 17 -17 0 -11 5 -14 18 -9 9 3 31 9 47 12 23 4 27 2 15 -6 -13 -9 -13 -11 0
-11 8 0 21 9 28 20 7 11 8 20 3 20 -5 0 -11 -4 -13 -10 -1 -5 -9 -6 -15 -2 -9
6 -3 13 17 26 l30 17 0 -26 c0 -14 11 -37 25 -51 l25 -25 -25 -9 c-18 -7 -25
-17 -25 -35 0 -21 5 -25 30 -25 17 0 30 5 30 12 0 6 3 8 7 5 14 -15 32 54 26
98 l-6 44 34 -9 c19 -6 35 -10 37 -10 2 0 1 -4 -2 -9 -3 -4 6 -6 19 -3 14 2
25 6 25 8 0 2 -9 28 -21 59 -12 31 -19 58 -16 61 2 3 19 -34 37 -81 38 -95 49
-106 25 -21 -9 31 -14 60 -10 66 10 16 53 11 64 -8 8 -13 10 -8 11 25 0 23 4
44 8 47 5 3 8 -12 9 -32 0 -78 3 -92 19 -92 8 0 13 4 9 9 -6 11 44 53 55 46 7
-4 15 -29 25 -75 1 -3 18 -22 39 -44 20 -21 40 -51 43 -67 4 -24 11 -29 34
-29 l29 0 0 118 c0 116 0 118 -31 155 -24 29 -35 58 -49 129 -11 50 -17 95
-14 100 3 4 -2 8 -10 8 -8 0 -20 -8 -25 -19 -14 -26 -71 -58 -118 -65 -39 -7
-123 16 -123 34 0 4 16 11 36 15 26 4 41 2 53 -9 23 -21 31 -20 31 2 0 20 27
26 48 9 9 -7 15 -1 23 22 7 18 18 31 28 31 29 0 43 21 27 39 -8 9 -16 30 -18
46 -2 20 -6 26 -11 18z m-133 -255 c-4 -14 -2 -18 5 -14 17 11 13 -10 -4 -24
-13 -11 -15 -7 -15 29 0 27 4 40 10 36 6 -4 8 -16 4 -27z m247 -289 c-18 -11
-35 -18 -38 -15 -5 5 46 35 62 36 6 0 -5 -9 -24 -21z"/>
<path d="M227 598 c-10 -11 -17 -22 -14 -24 2 -2 12 5 22 16 23 26 16 33 -8 8z"/>
<path d="M2961 597 c-13 -21 -12 -21 5 -5 10 10 16 20 13 22 -3 3 -11 -5 -18
-17z"/>
<path d="M885 600 c-3 -5 -2 -10 4 -10 5 0 13 5 16 10 3 6 2 10 -4 10 -5 0
-13 -4 -16 -10z"/>
<path d="M2923 557 l-23 -13 31 -18 c31 -18 31 -18 19 3 -6 12 -8 26 -5 31 8
13 5 12 -22 -3z"/>
<path d="M298 553 c7 -3 16 -2 19 1 4 3 -2 6 -13 5 -11 0 -14 -3 -6 -6z"/>
<path d="M780 556 c0 -2 7 -9 15 -16 9 -7 15 -8 15 -2 0 5 -7 12 -15 16 -8 3
-15 4 -15 2z"/>
<path d="M390 531 c0 -7 -5 -9 -12 -5 -7 5 -8 3 -3 -5 5 -9 10 -10 18 -2 6 6
8 14 4 18 -4 3 -7 1 -7 -6z"/>
<path d="M1341 484 c0 -11 3 -14 6 -6 3 7 2 16 -1 19 -3 4 -6 -2 -5 -13z"/>
<path d="M1634 458 l-19 -23 23 19 c21 18 27 26 19 26 -2 0 -12 -10 -23 -22z"/>
<path d="M1045 386 c-11 -15 -29 -32 -40 -36 -17 -7 -14 -9 13 -9 20 -1 43
-10 58 -24 23 -22 26 -31 28 -123 1 -54 -1 -109 -6 -122 -7 -21 8 -72 21 -72
4 0 7 67 6 148 0 124 -3 152 -18 175 -9 15 -22 27 -27 27 -5 0 -10 14 -12 32
l-3 31 -20 -27z"/>
<path d="M145 360 c-3 -5 -1 -10 4 -10 6 0 11 5 11 10 0 6 -2 10 -4 10 -3 0
-8 -4 -11 -10z"/>
<path d="M10 322 c0 -12 3 -12 15 -2 19 15 19 17 0 17 -8 0 -15 -7 -15 -15z"/>
<path d="M185 331 c-6 -11 13 -26 22 -17 4 3 1 6 -6 6 -7 0 -9 5 -6 10 3 6 4
10 1 10 -3 0 -7 -4 -11 -9z"/>
<path d="M756 323 c-3 -3 -5 -45 -5 -92 l2 -86 7 70 c4 39 10 77 14 86 8 17
-6 34 -18 22z"/>
<path d="M1904 309 c-3 -5 6 -9 20 -9 31 0 34 6 6 13 -11 3 -23 1 -26 -4z"/>
<path d="M183 284 c-3 -9 -2 -32 3 -51 9 -35 26 -46 32 -21 2 9 0 8 -7 -2 -11
-15 -12 -11 -15 58 -1 9 5 16 12 14 8 -1 11 2 7 8 -9 15 -25 12 -32 -6z"/>
<path d="M2529 288 c-7 -15 -6 -58 2 -58 5 0 9 14 9 30 0 25 -6 39 -11 28z"/>
<path d="M2480 265 c-7 -9 -11 -17 -9 -20 3 -2 10 5 17 15 14 24 10 26 -8 5z"/>
<path d="M206 258 c3 -4 9 -8 15 -8 5 0 9 4 9 8 0 5 -7 9 -15 9 -8 0 -12 -4
-9 -9z"/>
<path d="M880 261 c0 -6 4 -13 10 -16 6 -3 7 1 4 9 -7 18 -14 21 -14 7z"/>
<path d="M402 248 c-7 -7 -12 -21 -12 -32 0 -20 0 -20 15 0 12 16 16 17 24 5
7 -10 9 -7 8 12 -2 29 -16 34 -35 15z"/>
<path d="M671 243 c-1 -15 5 -23 15 -23 9 0 12 -5 8 -12 -5 -9 -2 -9 9 1 18
14 23 51 8 51 -5 0 -7 -9 -4 -20 4 -15 2 -19 -10 -14 -9 3 -18 13 -20 22 -3
12 -5 10 -6 -5z"/>
<path d="M951 246 c-10 -12 -9 -14 8 -9 28 7 44 -27 31 -64 l-10 -28 18 24
c38 47 -9 123 -47 77z"/>
<path d="M50 214 c0 -8 5 -12 10 -9 6 4 8 11 5 16 -9 14 -15 11 -15 -7z"/>
<path d="M328 213 c6 -2 18 -2 25 0 6 3 1 5 -13 5 -14 0 -19 -2 -12 -5z"/>
<path d="M8 203 c7 -3 16 -2 19 1 4 3 -2 6 -13 5 -11 0 -14 -3 -6 -6z"/>
<path d="M155 200 c4 -7 -2 -9 -18 -5 -21 6 -26 2 -35 -24 -10 -28 -9 -31 9
-31 10 0 19 -4 19 -10 0 -5 -7 -10 -16 -10 -12 0 -10 -6 10 -21 26 -20 34 -44
17 -51 -4 -1 -12 -14 -15 -28 -6 -21 -4 -20 13 8 12 18 21 42 21 53 0 11 4 17
10 14 6 -4 7 1 3 11 -5 13 -3 15 8 9 8 -4 11 -5 7 0 -4 4 -2 17 4 29 10 19 9
19 -4 8 -10 -8 -19 -9 -22 -4 -3 6 1 15 9 22 12 10 13 16 4 26 -13 16 -33 19
-24 4z m18 -23 c-3 -5 -14 -7 -24 -4 -20 5 -27 -8 -9 -16 6 -3 5 -4 -2 -3 -7
1 -14 9 -16 18 -2 10 6 15 27 15 17 0 28 -4 24 -10z"/>
<path d="M623 183 c9 -11 17 -28 17 -39 0 -18 35 -84 44 -84 2 0 -5 17 -15 37
-10 21 -17 45 -14 54 4 11 -4 23 -22 34 -28 18 -28 18 -10 -2z"/>
<path d="M26 165 c-13 -19 -13 -23 -2 -19 8 3 16 14 19 25 7 25 3 24 -17 -6z"/>
<path d="M220 177 c0 -7 8 -13 18 -14 9 -1 28 -4 42 -7 14 -3 18 -3 10 0 -8 4
-27 13 -42 21 -23 11 -28 11 -28 0z"/>
<path d="M721 174 c0 -11 3 -14 6 -6 3 7 2 16 -1 19 -3 4 -6 -2 -5 -13z"/>
<path d="M515 151 c-3 -5 -1 -12 4 -15 5 -3 11 1 15 9 6 16 -9 21 -19 6z"/>
<path d="M702 144 c10 -10 20 -15 24 -12 3 4 -5 12 -18 18 -22 12 -22 12 -6
-6z"/>
<path d="M802 135 c0 -16 2 -22 5 -12 2 9 2 23 0 30 -3 6 -5 -1 -5 -18z"/>
<path d="M60 140 c0 -5 5 -10 11 -10 5 0 7 5 4 10 -3 6 -8 10 -11 10 -2 0 -4
-4 -4 -10z"/>
<path d="M318 143 c6 -2 18 -2 25 0 6 3 1 5 -13 5 -14 0 -19 -2 -12 -5z"/>
<path d="M360 139 c0 -5 5 -7 10 -4 6 3 10 8 10 11 0 2 -4 4 -10 4 -5 0 -10
-5 -10 -11z"/>
<path d="M2742 125 c0 -16 2 -22 5 -12 2 9 2 23 0 30 -3 6 -5 -1 -5 -18z"/>
<path d="M761 124 c0 -11 3 -14 6 -6 3 7 2 16 -1 19 -3 4 -6 -2 -5 -13z"/>
<path d="M965 131 c-3 -5 -2 -12 3 -15 5 -3 9 1 9 9 0 17 -3 19 -12 6z"/>
<path d="M68 103 c7 -3 16 -2 19 1 4 3 -2 6 -13 5 -11 0 -14 -3 -6 -6z"/>
<path d="M830 101 c0 -13 -49 -20 -54 -7 -2 6 -5 3 -5 -6 -1 -10 -5 -18 -10
-18 -7 0 -31 -51 -31 -66 0 -10 78 -2 88 8 8 8 15 9 20 3 4 -6 19 -12 35 -13
39 -5 36 30 -8 74 -19 19 -35 31 -35 25z m20 -42 c0 -5 -4 -9 -10 -9 -5 0 -10
7 -10 16 0 8 5 12 10 9 6 -3 10 -10 10 -16z m-73 -35 c-9 -9 -28 6 -21 18 4 6
10 6 17 -1 6 -6 8 -13 4 -17z"/>
<path d="M2800 79 c-7 -11 -10 -23 -7 -25 2 -2 9 7 15 21 14 30 7 33 -8 4z"/>
<path d="M2851 97 c2 -1 15 -11 29 -22 l25 -20 -19 23 c-11 12 -24 22 -29 22
-6 0 -8 -1 -6 -3z"/>
<path d="M2390 68 c-19 -11 -44 -29 -55 -40 -15 -15 -10 -14 20 6 80 51 103
74 35 34z"/>
<path d="M2698 83 c7 -3 16 -2 19 1 4 3 -2 6 -13 5 -11 0 -14 -3 -6 -6z"/>
<path d="M603 55 c4 -5 -3 -19 -15 -32 -15 -16 -17 -23 -7 -23 20 0 41 48 26
57 -7 3 -9 2 -4 -2z"/>
<path d="M2576 44 c-22 -21 -20 -31 2 -12 9 9 26 18 37 21 19 4 18 5 -2 6 -12
0 -29 -6 -37 -15z"/>
<path d="M2660 25 c13 -14 26 -25 28 -25 3 0 -5 11 -18 25 -13 14 -26 25 -28
25 -3 0 5 -11 18 -25z"/>
<path d="M2822 25 c0 -17 2 -22 5 -12 2 9 2 23 0 30 -3 6 -5 -1 -5 -18z"/>
<path d="M426 11 c-4 -5 3 -7 14 -4 23 6 26 13 6 13 -8 0 -17 -4 -20 -9z"/>
</g>
</svg>
